<?xml version="1.0" encoding="UTF-8" standalone="no"?>
<svg
   preserveAspectRatio="xMidYMid slice"
   viewBox="49 47 22 22"
   width="110"
   height="110"
   shape-rendering="crispEdges"
   style="image-rendering:pixelated"
   version="1.1"
   id="svg66"
   sodipodi:docname="dao-logo5.svg"
   inkscape:version="1.4.4 (dcaf3e7d9e, 2026-05-05)"
   xmlns:inkscape="http://www.inkscape.org/namespaces/inkscape"
   xmlns:sodipodi="http://sodipodi.sourceforge.net/DTD/sodipodi-0.dtd"
   xmlns="http://www.w3.org/2000/svg"
   xmlns:svg="http://www.w3.org/2000/svg">
  <sodipodi:namedview
     id="namedview66"
     pagecolor="#ffffff"
     bordercolor="#000000"
     borderopacity="0.25"
     inkscape:showpageshadow="2"
     inkscape:pageopacity="0.0"
     inkscape:pagecheckerboard="0"
     inkscape:deskcolor="#d1d1d1"
     showgrid="true"
     inkscape:zoom="6.1739261"
     inkscape:cx="76.207585"
     inkscape:cy="83.334331"
     inkscape:window-width="2250"
     inkscape:window-height="1651"
     inkscape:window-x="0"
     inkscape:window-y="0"
     inkscape:window-maximized="0"
     inkscape:current-layer="g71"
     inkscape:clip-to-page="true">
    <inkscape:grid
       id="grid71"
       units="px"
       originx="-4"
       originy="-2"
       spacingx="2"
       spacingy="2"
       empcolor="#0099e5"
       empopacity="0.30196078"
       color="#0099e5"
       opacity="0.14901961"
       empspacing="5"
       enabled="true"
       visible="true" />
  </sodipodi:namedview>
  <defs
     id="defs1">
    <rect
       id="r"
       width="2"
       height="2"
       x="0"
       y="0" />
    <clipPath
       clipPathUnits="userSpaceOnUse"
       id="clipPath71">
      <rect
         style="fill:none;stroke-width:0.2"
         id="rect72"
         width="22"
         height="22"
         x="53"
         y="49" />
    </clipPath>
  </defs>
  <g
     id="g71"
     clip-path="url(#clipPath71)"
     transform="translate(-4,-2)">
    <path
       id="polygon1"
       style="fill:#808080"
       d="M 57 49 L 57 51 L 55 51 L 55 55 L 53 55 L 53 65 L 51 65 L 51 73 L 53 73 L 53 75 L 69 75 L 69 77 L 85 77 L 85 75 L 87 75 L 87 73 L 89 73 L 89 71 L 91 71 L 91 61 L 89 61 L 89 57 L 83 57 L 83 55 L 73 55 L 73 51 L 71 51 L 71 49 L 69 49 L 69 51 L 67 51 L 67 53 L 61 53 L 61 51 L 59 51 L 59 49 L 57 49 z M 53 67 L 55 67 L 55 69 L 57 69 L 57 71 L 53 71 L 53 69 L 53 67 z M 73 67 L 75 67 L 75 69 L 75 71 L 71 71 L 71 69 L 73 69 L 73 67 z " />
    <polygon
       points="61,55 67,55 67,53 69,53 69,51 71,51 71,53 69,53 69,55 71,55 71,57 73,57 73,67 71,67 71,69 57,69 57,67 55,67 55,57 57,57 57,55 59,55 59,53 57,53 57,51 59,51 59,53 61,53 "
       fill="#ffffff"
       id="polygon2" />
    <path
       id="polygon3"
       d="m 77,57 v 2 h -2 v 8 2 h 4 v 2 h 2 v -4 h -2 v -2 h 2 v 2 h 4 v 2 h -2 v 2 h -2 v 2 h -8 v -2 h -2 v 4 h 12 v -2 h 2 v -2 h 2 v -2 h 2 V 63 H 87 V 59 H 81 V 57 Z M 53,69 v 2 h 2 v 2 h 4 v -2 h -2 v -2 z m 12,2 v 2 h 4 v -2 z"
       style="display:inline;fill:none" />
    <g
       fill="#ff9999"
       id="g7">
      <rect
         id="use3"
         width="2"
         height="2"
         x="57"
         y="53" />
      <rect
         id="use4"
         width="2"
         height="2"
         x="69"
         y="53" />
      <rect
         id="use5"
         width="2"
         height="2"
         x="63"
         y="63" />
      <rect
         id="use6"
         width="2"
         height="2"
         x="59"
         y="71" />
      <rect
         id="use7"
         width="2"
         height="2"
         x="63"
         y="71" />
    </g>
    <polygon
       points="75,69 79,69 79,71 75,71 "
       fill="#aaaaaa"
       id="polygon7" />
    <g
       fill="#d3d3d3"
       id="g60">
      <rect
         id="use8"
         width="2"
         height="2"
         x="57"
         y="51" />
      <rect
         id="use9"
         width="2"
         height="2"
         x="59"
         y="53" />
      <rect
         id="use10"
         width="2"
         height="2"
         x="57"
         y="55" />
      <rect
         id="use11"
         width="2"
         height="2"
         x="59"
         y="55" />
      <rect
         id="use12"
         width="2"
         height="2"
         x="61"
         y="55" />
      <rect
         id="use13"
         width="2"
         height="2"
         x="55"
         y="57" />
      <rect
         id="use14"
         width="2"
         height="2"
         x="57"
         y="57" />
      <rect
         id="use15"
         width="2"
         height="2"
         x="59"
         y="57" />
      <rect
         id="use16"
         width="2"
         height="2"
         x="61"
         y="57" />
      <rect
         id="use17"
         width="2"
         height="2"
         x="63"
         y="57" />
      <rect
         id="use18"
         width="2"
         height="2"
         x="55"
         y="59" />
      <rect
         id="use19"
         width="2"
         height="2"
         x="57"
         y="59" />
      <rect
         id="use20"
         width="2"
         height="2"
         x="61"
         y="59" />
      <rect
         id="use21"
         width="2"
         height="2"
         x="63"
         y="59" />
      <rect
         id="use22"
         width="2"
         height="2"
         x="55"
         y="61" />
      <rect
         id="use23"
         width="2"
         height="2"
         x="57"
         y="61" />
      <rect
         id="use24"
         width="2"
         height="2"
         x="59"
         y="61" />
      <rect
         id="use25"
         width="2"
         height="2"
         x="61"
         y="61" />
      <rect
         id="use26"
         width="2"
         height="2"
         x="63"
         y="61" />
      <rect
         id="use27"
         width="2"
         height="2"
         x="65"
         y="61" />
      <rect
         id="use28"
         width="2"
         height="2"
         x="83"
         y="61" />
      <rect
         id="use29"
         width="2"
         height="2"
         x="85"
         y="61" />
      <rect
         id="use30"
         width="2"
         height="2"
         x="55"
         y="63" />
      <rect
         id="use31"
         width="2"
         height="2"
         x="57"
         y="63" />
      <rect
         id="use32"
         width="2"
         height="2"
         x="59"
         y="63" />
      <rect
         id="use33"
         width="2"
         height="2"
         x="61"
         y="63" />
      <rect
         id="use34"
         width="2"
         height="2"
         x="65"
         y="63" />
      <rect
         id="use35"
         width="2"
         height="2"
         x="83"
         y="63" />
      <rect
         id="use36"
         width="2"
         height="2"
         x="85"
         y="63" />
      <rect
         id="use37"
         width="2"
         height="2"
         x="87"
         y="63" />
      <rect
         id="use38"
         width="2"
         height="2"
         x="55"
         y="65" />
      <rect
         id="use39"
         width="2"
         height="2"
         x="57"
         y="65" />
      <rect
         id="use40"
         width="2"
         height="2"
         x="59"
         y="65" />
      <rect
         id="use41"
         width="2"
         height="2"
         x="61"
         y="65" />
      <rect
         id="use42"
         width="2"
         height="2"
         x="63"
         y="65" />
      <rect
         id="use43"
         width="2"
         height="2"
         x="65"
         y="65" />
      <rect
         id="use44"
         width="2"
         height="2"
         x="81"
         y="65" />
      <rect
         id="use45"
         width="2"
         height="2"
         x="83"
         y="65" />
      <rect
         id="use46"
         width="2"
         height="2"
         x="85"
         y="65" />
      <rect
         id="use47"
         width="2"
         height="2"
         x="87"
         y="65" />
      <rect
         id="use48"
         width="2"
         height="2"
         x="57"
         y="67" />
      <rect
         id="use49"
         width="2"
         height="2"
         x="59"
         y="67" />
      <rect
         id="use50"
         width="2"
         height="2"
         x="61"
         y="67" />
      <rect
         id="use51"
         width="2"
         height="2"
         x="63"
         y="67" />
      <rect
         id="use52"
         width="2"
         height="2"
         x="65"
         y="67" />
      <rect
         id="use53"
         width="2"
         height="2"
         x="85"
         y="67" />
      <rect
         id="use54"
         width="2"
         height="2"
         x="87"
         y="67" />
      <rect
         id="use55"
         width="2"
         height="2"
         x="83"
         y="69" />
      <rect
         id="use56"
         width="2"
         height="2"
         x="85"
         y="69" />
      <rect
         id="use57"
         width="2"
         height="2"
         x="63"
         y="71" />
      <rect
         id="use58"
         width="2"
         height="2"
         x="65"
         y="71" />
      <rect
         id="use59"
         width="2"
         height="2"
         x="67"
         y="71" />
      <rect
         id="use60"
         width="2"
         height="2"
         x="83"
         y="71" />
    </g>
    <g
       fill="#aaaaaa"
       id="g64">
      <rect
         id="use61"
         width="2"
         height="2"
         x="57"
         y="63" />
      <rect
         id="use62"
         width="2"
         height="2"
         x="59"
         y="63" />
      <rect
         id="use63"
         width="2"
         height="2"
         x="67"
         y="63" />
      <rect
         id="use64"
         width="2"
         height="2"
         x="69"
         y="63" />
    </g>
    <g
       fill="#555555"
       id="g66">
      <rect
         id="use65"
         width="2"
         height="2"
         x="59"
         y="59" />
      <rect
         id="use66"
         width="2"
         height="2"
         x="67"
         y="59" />
    </g>
    <path
       style="fill:#000000;stroke-width:0.114531"
       d="m 40.028633,104.96779 v -4.982106 h -5.03937 -5.03937 V 75.017895 50.050107 h 5.03937 5.03937 v -5.03937 -5.03937 h 4.982104 4.982105 v -4.982104 -4.982105 h 4.982104 4.982105 v 4.982105 4.982104 h 5.03937 5.03937 v 5.03937 5.03937 H 75.017895 80 v 9.964209 9.964209 h 4.982105 4.982104 V 89.964209 109.94989 H 64.996421 40.028633 Z M 59.957051,84.982105 v -5.039371 h -9.964209 -9.964209 v 5.039371 5.03937 h 9.964209 9.964209 z m 20.042949,0 v -5.039371 h -4.982105 -4.982104 v 5.039371 5.03937 H 75.017895 80 Z M 59.957051,64.996421 v -4.982105 h -4.982105 -4.982104 v 4.982105 4.982104 h 4.982104 4.982105 z"
       id="path66"
       transform="matrix(0.2,0,0,0.2,49,47)" />
    <path
       style="fill:#ffffff;stroke-width:0.114531"
       d="m 49.992842,64.996421 v -4.982105 h 4.982104 4.982105 v 4.982105 4.982104 h -4.982105 -4.982104 z"
       id="path67"
       transform="matrix(0.2,0,0,0.2,49,47)" />
    <path
       style="fill:#ffffff;stroke-width:0.114531"
       d="m 40.028633,84.982105 v -5.039371 h 9.964209 9.964209 v 5.039371 5.03937 h -9.964209 -9.964209 z"
       id="path68"
       transform="matrix(0.2,0,0,0.2,49,47)" />
    <path
       style="fill:#1a1a1a;stroke-width:0.114531"
       d="m 89.964209,64.996421 v -4.982105 h 5.03937 5.039371 v 4.982105 4.982104 h -5.039371 -5.03937 z"
       id="path69"
       transform="matrix(0.2,0,0,0.2,49,47)" />
    <path
       style="fill:#000000;stroke-width:0.114531"
       d="m 89.964209,84.982105 v -5.039371 h 10.021475 10.021476 v 5.039371 5.03937 H 99.985684 89.964209 Z"
       id="path70"
       transform="matrix(0.2,0,0,0.2,49,47)" />
    <path
       style="fill:#000000;stroke-width:0.114531"
       d="m 40.028633,25.025054 v -4.982105 h 4.982104 4.982105 v 4.982105 4.982104 h -4.982105 -4.982104 z"
       id="path71"
       transform="matrix(0.2,0,0,0.2,49,47)" />
  </g>
</svg>
