<svg xmlns="http://www.w3.org/2000/svg" viewBox="0 0 22 22" width="110" height="110" preserveAspectRatio="xMidYMid slice" shape-rendering="crispEdges" style="image-rendering:pixelated">
  <path fill="#808080" d="M6 2 6 0 4 0 4 2Z M2 4 2 6 0 6 0 8 0 10 0 12 0 14 0 16 0 18 2 18 2 16 2 14 2 12 2 10 2 8 4 8 4 6 4 4 4 2 2 2Z M8 2 6 2 6 4 8 4Z M8 6 10 6 12 6 14 6 14 4 12 4 10 4 8 4Z M4 18 2 18 2 20 4 20Z M12 22 14 22 16 22 18 22 18 20 16 20 14 20 12 20 10 20 8 20 6 20 4 20 4 22 6 22 8 22 10 22Z M18 0 16 0 16 2 18 2Z M18 4 18 6 18 8 20 8 20 10 20 12 20 14 20 16 20 18 22 18 22 16 22 14 22 12 22 10 22 8 22 6 20 6 20 4 20 2 18 2Z M16 4 16 2 14 2 14 4Z M18 18 18 20 20 20 20 18Z"/>
  <path fill="#000000" d="M14 6 12 6 10 6 10 8 12 8 12 10 12 12 14 12 14 14 16 14 18 14 18 16 16 16 14 16 14 18 14 20 16 20 18 20 18 18 20 18 20 16 20 14 20 12 20 10 20 8 18 8 18 6 16 6 16 4 14 4Z M14 10 16 10 16 12 14 12Z M8 10 6 10 6 12 8 12Z M8 16 8 14 6 14 4 14 4 16 6 16Z M16 2 16 4 18 4 18 2Z"/>
  <path fill="#ffffff" d="M6 2 4 2 4 4 6 4Z M4 6 4 8 2 8 2 10 2 12 2 14 2 16 2 18 4 18 4 20 6 20 8 20 10 20 12 20 14 20 14 18 14 16 16 16 18 16 18 14 16 14 14 14 14 12 12 12 12 10 12 8 10 8 10 6 8 6 8 4 6 4 6 6Z M6 16 4 16 4 14 6 14 8 14 8 16Z M6 12 6 10 8 10 8 12Z M12 16 10 16 10 14 12 14Z M14 10 14 12 16 12 16 10Z"/>
  <path fill="#ff9999" d="M4 4 4 6 6 6 6 4Z M16 6 18 6 18 4 16 4Z M10 16 12 16 12 14 10 14Z"/>
</svg>
